<svg width="451" height="433" viewBox="0 0 451 433" xmlns="http://www.w3.org/2000/svg">
    <path
        d="M205.687 2.04541C204.516 6.17523 216.613 37.9431 228.125 60.6042C248.319 100.632 280.122 141.506 306.95 161.838C310.267 164.379 312.998 166.815 312.998 167.238C312.998 167.768 310.657 170.415 307.828 173.168L302.755 178.145L294.658 170.309C244.807 121.175 201.98 100.949 158.373 105.926C112.619 111.115 51.3543 144.683 29.7945 176.345C26.38 181.322 24.5265 183.122 20.8194 184.605C14.2832 187.252 6.86893 194.77 3.64959 201.971C1.60093 206.313 0.820484 209.913 0.527817 216.161L0.0400391 224.526H16.3318H32.526V230.774C32.526 254.282 49.9885 274.508 82.2794 288.168C93.5958 293.039 113.595 298.863 125.692 300.769C133.496 302.04 133.496 302.04 137.398 307.44C148.617 323.113 163.641 340.479 201.785 382.201L243.929 428.158L249.295 425.934C260.806 421.275 270.562 420.004 293.975 420.11C321.778 420.11 353.972 424.134 387.531 431.653C391.433 432.5 394.847 433.029 395.14 432.712C395.921 431.864 391.043 421.063 386.555 413.863C380.799 404.65 369.678 392.896 363.239 389.507C354.655 384.848 346.07 383.26 325.583 382.624L306.95 381.989L305.779 375C299.828 339.208 271.342 286.474 237.393 248.458C219.247 228.127 195.346 208.325 177.494 199.006C173.299 196.782 169.592 194.665 169.396 194.453C168.518 193.606 181.103 196.994 189.103 199.747C199.346 203.348 216.028 212.454 227.637 220.714C246.661 234.268 268.903 255.447 281.781 272.178C295.633 290.18 310.462 318.665 317.486 340.691C319.144 346.091 321.095 350.539 321.681 350.539C323.925 350.539 334.461 347.256 338.655 345.244C348.216 340.585 351.923 335.396 358.459 317.288C364.313 300.981 367.922 294.733 376.702 285.732C389.775 272.39 398.652 267.731 418.261 263.813C424.602 262.542 431.723 260.53 434.065 259.365C439.235 256.612 445.186 249.729 445.186 246.34C445.186 244.964 446.552 241.046 448.113 237.763C452.698 228.444 451.917 224.42 443.723 213.408C441.967 211.078 438.943 204.83 437.089 199.641C429.87 179.098 422.358 165.65 412.017 154.531C400.701 142.353 389.092 138.224 369.288 139.071L357.386 139.6L349.874 127.74C330.558 97.1372 300.414 61.1336 277 40.6963C264.416 29.5775 246.661 17.294 233.003 10.0933C214.174 0.0334432 206.955 -2.08441 205.687 2.04541ZM411.627 205.783C418.456 212.137 411.139 222.726 403.14 218.067C398.555 215.525 398.847 207.054 403.53 204.618C406.847 202.818 408.798 203.136 411.627 205.783Z"
        fill="black" stroke="red" />
</svg>